<svg width="24" height="24" viewBox="0 0 24 24" fill="none" xmlns="http://www.w3.org/2000/svg">
<g clip-path="url(#clip0)">
<path d="M6.74999 24.001C6.71099 24.001 6.67299 23.998 6.63599 23.992C6.40099 23.98 6.17299 23.933 5.95899 23.853L1.45899 22.166C0.588993 21.84 0.00199292 20.996 -0.00100708 20.066V14.439C-0.00100708 14.026 0.116993 13.617 0.341993 13.256C0.359993 13.221 0.379993 13.188 0.401993 13.158C0.659993 12.782 1.02699 12.494 1.45899 12.332L5.95899 10.645C6.21199 10.55 6.47799 10.501 6.74899 10.501C7.01999 10.501 7.28599 10.549 7.53899 10.645L12.039 12.332C12.47 12.494 12.837 12.782 13.101 13.165C13.12 13.191 13.139 13.222 13.156 13.257C13.38 13.618 13.498 14.026 13.498 14.439V20.064C13.495 20.996 12.909 21.84 12.038 22.166L7.53799 23.853C7.32399 23.933 7.09799 23.98 6.86299 23.992C6.82799 23.997 6.78899 24.001 6.74999 24.001ZM1.49999 20.064C1.50099 20.372 1.69599 20.653 1.98599 20.762L5.99999 22.266V16.27L1.49999 14.583V20.064ZM7.49999 22.266L11.514 20.761C11.804 20.652 11.999 20.371 12 20.061V14.582L7.49999 16.27V22.266ZM6.74999 14.95L10.75 13.45L7.01299 12.049C6.92799 12.017 6.83899 12.001 6.74899 12.001C6.65899 12.001 6.56999 12.017 6.48499 12.049L2.74999 13.45L6.74999 14.95Z" fill="#A8AABD"/>
<path d="M15.75 17.582C15.427 17.582 15.141 17.376 15.039 17.069C14.908 16.677 15.121 16.251 15.513 16.121L21.987 13.963C22.294 13.861 22.5 13.575 22.5 13.251V4.79098L15 7.29098V10.5C15 10.914 14.664 11.25 14.25 11.25C13.836 11.25 13.5 10.914 13.5 10.5V7.29098L6 4.79098V8.24998C6 8.66398 5.664 8.99998 5.25 8.99998C4.836 8.99998 4.5 8.66398 4.5 8.25098V4.75098C4.5 4.26298 4.656 3.79598 4.951 3.40298C4.966 3.38298 4.982 3.36298 4.999 3.34398C5.273 3.00298 5.632 2.75198 6.039 2.61598L13.539 0.115977C13.767 0.0399766 14.006 0.000976562 14.25 0.000976562C14.494 0.000976562 14.734 0.0399766 14.963 0.116977L22.462 2.61698C22.868 2.75198 23.226 3.00298 23.5 3.34298C23.518 3.36298 23.535 3.38298 23.551 3.40498C23.844 3.79698 24 4.26298 24 4.75098V13.251C24 14.221 23.382 15.079 22.461 15.386L15.987 17.544C15.911 17.569 15.831 17.582 15.75 17.582ZM14.25 5.95998L20.998 3.71098L14.487 1.53898C14.411 1.51298 14.331 1.50098 14.25 1.50098C14.169 1.50098 14.09 1.51398 14.014 1.53898L7.5 3.70998L14.25 5.95998Z" fill="#A8AABD"/>
</g>
<defs>
<clipPath id="clip0">
<rect width="24" height="24" fill="white"/>
</clipPath>
</defs>
</svg>
