<svg width="24" height="24" viewBox="0 0 24 24" fill="none" xmlns="http://www.w3.org/2000/svg">
<path d="M12 23.999C11.973 23.999 11.947 23.997 11.921 23.993C11.414 23.976 10.937 23.805 10.541 23.498C8.111 21.442 5.178 20.153 2.048 19.759C0.878001 19.606 -0.000999148 18.604 8.52381e-07 17.428V2.365C8.52381e-07 2.256 0.00800085 2.146 0.0220009 2.039C0.109001 1.414 0.434001 0.86 0.938001 0.48C1.352 0.167 1.843 0.002 2.36 0.002C2.469 0.002 2.579 0.009 2.688 0.024C5.94 0.526 8.979 1.91 11.484 4.027C11.61 4.124 11.779 4.183 11.962 4.19C11.975 4.188 11.986 4.188 12 4.188C12.013 4.188 12.026 4.189 12.039 4.19C12.224 4.181 12.398 4.118 12.542 4.007C15.024 1.907 18.057 0.526 21.298 0.024C21.415 0.007 21.523 0 21.634 0C22.269 0.001 22.862 0.248 23.308 0.695C23.754 1.142 23.999 1.736 23.997 2.367V17.43C23.997 18.605 23.119 19.607 21.954 19.761C18.82 20.155 15.892 21.441 13.485 23.48C13.477 23.486 13.457 23.502 13.449 23.508C13.063 23.808 12.586 23.978 12.079 23.995C12.05 23.997 12.025 23.999 12 23.999ZM12.75 22.139C15.324 20.029 18.439 18.69 21.762 18.272C22.18 18.217 22.497 17.855 22.497 17.429V2.365C22.497 2.134 22.408 1.917 22.245 1.753C22.084 1.591 21.87 1.502 21.641 1.5C21.6 1.501 21.557 1.502 21.516 1.508C18.557 1.966 15.778 3.234 13.485 5.173C13.257 5.35 13.012 5.48 12.75 5.565V22.139V22.139ZM2.359 1.501C2.172 1.501 1.994 1.562 1.842 1.676C1.659 1.815 1.54 2.018 1.508 2.246C1.503 2.286 1.5 2.325 1.5 2.365V17.429C1.5 17.854 1.818 18.217 2.239 18.273C5.555 18.69 8.664 20.024 11.25 22.139V5.567C10.993 5.484 10.755 5.358 10.542 5.193C8.225 3.237 5.439 1.967 2.47 1.508C2.437 1.503 2.398 1.501 2.359 1.501Z" fill="#A8AABD"/>
</svg>
