<svg width="24" height="24" viewBox="0 0 24 24" fill="none" xmlns="http://www.w3.org/2000/svg">
<path d="M17.25 23.25C16.836 23.25 16.5 22.914 16.5 22.5V21H12.75V22.5C12.75 22.914 12.414 23.25 12 23.25C11.586 23.25 11.25 22.914 11.25 22.5V21H7.5V22.5C7.5 22.914 7.164 23.25 6.75 23.25C6.336 23.25 6 22.914 6 22.5V21H5.25C4.009 21 3 19.991 3 18.75V18H1.5C1.086 18 0.75 17.664 0.75 17.25C0.75 16.836 1.086 16.5 1.5 16.5H3V12.75H1.5C1.086 12.75 0.75 12.414 0.75 12C0.75 11.586 1.086 11.25 1.5 11.25H3V7.5H1.5C1.086 7.5 0.75 7.164 0.75 6.75C0.75 6.336 1.086 6 1.5 6H3V5.25C3 4.009 4.009 3 5.25 3H6V1.5C6 1.086 6.336 0.75 6.75 0.75C7.164 0.75 7.5 1.086 7.5 1.5V3H11.25V1.5C11.25 1.086 11.586 0.75 12 0.75C12.414 0.75 12.75 1.086 12.75 1.5V3H16.5V1.5C16.5 1.086 16.836 0.75 17.25 0.75C17.664 0.75 18 1.086 18 1.5V3H18.75C19.991 3 21 4.009 21 5.25V6H22.5C22.914 6 23.25 6.336 23.25 6.75C23.25 7.164 22.914 7.5 22.5 7.5H21V11.25H22.5C22.914 11.25 23.25 11.586 23.25 12C23.25 12.414 22.914 12.75 22.5 12.75H21V16.5H22.5C22.914 16.5 23.25 16.836 23.25 17.25C23.25 17.664 22.914 18 22.5 18H21V18.75C21 19.991 19.991 21 18.75 21H18V22.5C18 22.914 17.664 23.25 17.25 23.25ZM5.25 4.5C4.836 4.5 4.5 4.836 4.5 5.25V18.75C4.5 19.164 4.836 19.5 5.25 19.5H18.75C19.164 19.5 19.5 19.164 19.5 18.75V5.25C19.5 4.836 19.164 4.5 18.75 4.5H5.25Z" fill="#A8AABD"/>
<path d="M8.25 18C7.009 18 6 16.991 6 15.75V8.25C6 7.009 7.009 6 8.25 6H15.75C16.991 6 18 7.009 18 8.25V15.75C18 16.991 16.991 18 15.75 18H8.25ZM8.25 7.5C7.836 7.5 7.5 7.836 7.5 8.25V15.75C7.5 16.164 7.836 16.5 8.25 16.5H15.75C16.164 16.5 16.5 16.164 16.5 15.75V8.25C16.5 7.836 16.164 7.5 15.75 7.5H8.25Z" fill="#A8AABD"/>
<path d="M12 15C11.586 15 11.25 14.664 11.25 14.25C11.25 13.836 11.586 13.5 12 13.5H14.25C14.664 13.5 15 13.836 15 14.25C15 14.664 14.664 15 14.25 15H12Z" fill="#A8AABD"/>
</svg>
