<svg width="24" height="24" viewBox="0 0 24 24" fill="none" xmlns="http://www.w3.org/2000/svg">
<path d="M9 11.25C7.759 11.25 6.75 10.241 6.75 9V3C6.75 1.759 7.759 0.75 9 0.75H15C16.241 0.75 17.25 1.759 17.25 3V9C17.25 10.241 16.241 11.25 15 11.25H9ZM9 2.25C8.586 2.25 8.25 2.586 8.25 3V9C8.25 9.414 8.586 9.75 9 9.75H15C15.414 9.75 15.75 9.414 15.75 9V3C15.75 2.586 15.414 2.25 15 2.25H9Z" fill="#A8AABD"/>
<path d="M3 23.25C1.759 23.25 0.75 22.241 0.75 21V15C0.75 13.759 1.759 12.75 3 12.75H9C10.241 12.75 11.25 13.759 11.25 15V21C11.25 22.241 10.241 23.25 9 23.25H3ZM3 14.25C2.586 14.25 2.25 14.586 2.25 15V21C2.25 21.414 2.586 21.75 3 21.75H9C9.414 21.75 9.75 21.414 9.75 21V15C9.75 14.586 9.414 14.25 9 14.25H3Z" fill="#A8AABD"/>
<path d="M15 23.25C13.759 23.25 12.75 22.241 12.75 21V15C12.75 13.759 13.759 12.75 15 12.75H21C22.241 12.75 23.25 13.759 23.25 15V21C23.25 22.241 22.241 23.25 21 23.25H15ZM15 14.25C14.586 14.25 14.25 14.586 14.25 15V21C14.25 21.414 14.586 21.75 15 21.75H21C21.414 21.75 21.75 21.414 21.75 21V15C21.75 14.586 21.414 14.25 21 14.25H15Z" fill="#A8AABD"/>
<path d="M12 7.125C11.956 7.125 11.912 7.121 11.869 7.113C11.356 7.053 10.947 6.643 10.887 6.131C10.879 6.088 10.875 6.044 10.875 6C10.875 5.956 10.879 5.912 10.887 5.869C10.947 5.356 11.357 4.947 11.869 4.887C11.912 4.879 11.956 4.875 12 4.875C12.044 4.875 12.088 4.879 12.131 4.887C12.644 4.947 13.053 5.357 13.114 5.87C13.121 5.912 13.125 5.956 13.125 6C13.125 6.044 13.121 6.088 13.114 6.13C13.053 6.643 12.644 7.052 12.131 7.113C12.088 7.121 12.044 7.125 12 7.125Z" fill="#A8AABD"/>
<path d="M6 19.125C5.956 19.125 5.912 19.121 5.87 19.114C5.357 19.054 4.947 18.644 4.887 18.132C4.879 18.088 4.875 18.044 4.875 18C4.875 17.956 4.879 17.912 4.886 17.869C4.946 17.356 5.356 16.947 5.869 16.886C5.911 16.879 5.955 16.875 5.999 16.875C6.043 16.875 6.087 16.879 6.129 16.886C6.642 16.947 7.052 17.356 7.112 17.869C7.121 17.912 7.125 17.956 7.125 18C7.125 18.044 7.121 18.088 7.114 18.131C7.054 18.644 6.644 19.053 6.131 19.113C6.088 19.121 6.044 19.125 6 19.125Z" fill="#A8AABD"/>
<path d="M18 19.125C17.956 19.125 17.912 19.121 17.87 19.114C17.357 19.054 16.947 18.644 16.887 18.131C16.88 18.089 16.876 18.045 16.876 18.001C16.876 17.957 16.88 17.913 16.887 17.87C16.947 17.357 17.357 16.947 17.87 16.887C17.912 16.879 17.956 16.876 18.001 16.876C18.046 16.876 18.089 16.88 18.132 16.887C18.645 16.947 19.055 17.357 19.115 17.87C19.123 17.912 19.126 17.956 19.126 18.001C19.126 18.046 19.122 18.089 19.115 18.132C19.055 18.645 18.645 19.055 18.132 19.115C18.088 19.121 18.044 19.125 18 19.125Z" fill="#A8AABD"/>
</svg>
