<svg width="24" height="24" viewBox="0 0 24 24" fill="none" xmlns="http://www.w3.org/2000/svg">
<g clip-path="url(#clip0)">
<path d="M12 24C5.159 24 0 21.743 0 18.75V5.25101C0 2.25801 5.159 0.00100708 12 0.00100708C18.841 0.00100708 24 2.25801 24 5.25101V18.75C24 21.743 18.841 24 12 24ZM1.5 18.75C1.5 20.283 5.239 22.5 12 22.5C18.761 22.5 22.5 20.283 22.5 18.75V14.613C20.447 16.235 16.477 17.25 12 17.25C7.523 17.25 3.554 16.234 1.5 14.613V18.75ZM1.5 12C1.5 13.533 5.239 15.75 12 15.75C18.761 15.75 22.5 13.533 22.5 12V7.86301C20.446 9.48501 16.477 10.5 12 10.5C7.523 10.5 3.554 9.48501 1.5 7.86301V12ZM12 1.50101C5.239 1.50101 1.5 3.71801 1.5 5.25101C1.5 6.78401 5.239 9.00101 12 9.00101C18.761 9.00101 22.5 6.78401 22.5 5.25101C22.5 3.71801 18.761 1.50101 12 1.50101Z" fill="#A8AABD"/>
</g>
<defs>
<clipPath id="clip0">
<rect width="24" height="24" fill="white"/>
</clipPath>
</defs>
</svg>
