<svg width="24" height="24" viewBox="0 0 24 24" fill="none" xmlns="http://www.w3.org/2000/svg">
<path d="M2.25 22.5C1.009 22.5 0 21.491 0 20.25V3.865C0.004 2.564 1.064 1.504 2.363 1.5H21.643C22.939 1.504 23.996 2.56 24 3.855V20.135C23.996 21.436 22.936 22.496 21.637 22.5H21.636H2.25ZM1.5 20.25C1.5 20.664 1.836 21 2.25 21H21.635C22.11 20.999 22.499 20.61 22.5 20.133V7.5H1.5V20.25ZM22.5 6V3.857C22.499 3.386 22.113 3.001 21.641 3H2.365C1.89 3.002 1.501 3.391 1.5 3.867V6H22.5Z" fill="#A8AABD"/>
<path d="M16.5 18C16.3 18 16.111 17.922 15.97 17.78C15.678 17.488 15.678 17.012 15.97 16.719L18.44 14.249L15.97 11.779C15.828 11.638 15.75 11.449 15.75 11.249C15.75 11.049 15.828 10.86 15.97 10.719C16.112 10.578 16.3 10.499 16.5 10.499C16.7 10.499 16.889 10.577 17.03 10.719L20.03 13.719C20.322 14.011 20.322 14.487 20.03 14.78L17.03 17.78C16.889 17.922 16.7 18 16.5 18Z" fill="#A8AABD"/>
<path d="M7.49998 18C7.29998 18 7.11098 17.922 6.96998 17.78L3.96998 14.78C3.67798 14.488 3.67798 14.012 3.96998 13.719L6.96998 10.719C7.11098 10.578 7.29998 10.5 7.49998 10.5C7.69998 10.5 7.88898 10.578 8.02998 10.72C8.17198 10.861 8.24998 11.05 8.24998 11.25C8.24998 11.45 8.17198 11.639 8.02998 11.78L5.55998 14.25L8.02998 16.72C8.32198 17.012 8.32198 17.488 8.02998 17.781C7.88898 17.922 7.69998 18 7.49998 18Z" fill="#A8AABD"/>
<path d="M10.5 18C10.385 18 10.269 17.973 10.165 17.921C9.79502 17.736 9.64502 17.285 9.82902 16.915L12.829 10.915C12.957 10.659 13.214 10.501 13.5 10.501C13.615 10.501 13.731 10.528 13.834 10.58C14.204 10.765 14.355 11.217 14.17 11.586L11.17 17.586C11.043 17.841 10.786 18 10.5 18Z" fill="#A8AABD"/>
</svg>
