<svg width="24" height="24" viewBox="0 0 24 24" fill="none" xmlns="http://www.w3.org/2000/svg">
<path d="M2.25 22C1.009 22 0 20.991 0 19.75V3.365C0.004 2.064 1.064 1.004 2.363 1H21.643C22.939 1.004 23.996 2.06 24 3.355V19.635C23.996 20.936 22.936 21.996 21.637 22H21.636H2.25ZM2.365 2.5C1.89 2.502 1.501 2.891 1.5 3.367V19.75C1.5 20.164 1.836 20.5 2.25 20.5H21.635C22.11 20.499 22.499 20.11 22.5 19.633V3.357C22.499 2.886 22.113 2.501 21.641 2.5H2.365Z" fill="#A8AABD"/>
<path d="M19.042 19H4.82C3.846 19 3.03 18.208 3 17.234V5.868C3.034 4.815 3.871 4 4.905 4H19.071L19.12 3.999C20.123 3.999 20.966 4.824 20.999 5.838V17.132C20.965 18.185 20.128 19 19.094 19H19.042ZM19.091 17.5C19.314 17.5 19.493 17.327 19.501 17.107V5.862C19.493 5.672 19.306 5.5 19.091 5.5H4.935C4.689 5.5 4.507 5.672 4.5 5.892V17.211C4.505 17.368 4.652 17.5 4.835 17.5H4.85H19.091Z" fill="#A8AABD"/>
<path d="M13.5 12.25C13.086 12.25 12.75 11.914 12.75 11.5C12.75 11.086 13.086 10.75 13.5 10.75H16.5C16.914 10.75 17.25 11.086 17.25 11.5C17.25 11.914 16.914 12.25 16.5 12.25H13.5Z" fill="#A8AABD"/>
<path d="M8.25 14.5C8.05 14.5 7.861 14.422 7.72 14.28C7.428 13.988 7.428 13.512 7.72 13.219L9.439 11.5L7.719 9.78C7.578 9.639 7.5 9.45 7.5 9.25C7.5 9.05 7.578 8.861 7.72 8.72C7.861 8.578 8.05 8.5 8.25 8.5C8.45 8.5 8.639 8.578 8.78 8.72L11.03 10.97C11.172 11.111 11.25 11.3 11.25 11.5C11.25 11.7 11.172 11.889 11.03 12.031L8.78 14.281C8.639 14.422 8.45 14.5 8.25 14.5Z" fill="#A8AABD"/>
</svg>
