<svg width="24" height="24" viewBox="0 0 24 24" fill="none" xmlns="http://www.w3.org/2000/svg">
<path d="M12 15C11.586 15 11.25 14.664 11.25 14.25V13.244C11.249 12.292 11.852 11.439 12.75 11.122C13.647 10.805 14.25 9.95198 14.25 9.00098C14.25 8.39998 14.016 7.83498 13.591 7.40998C13.167 6.98498 12.602 6.75098 12 6.75098C11.399 6.75098 10.834 6.98498 10.409 7.40998C9.984 7.83398 9.75 8.39898 9.75 8.99998C9.75 9.41298 9.414 9.74998 9 9.74998C8.586 9.74998 8.25 9.41298 8.25 8.99998C8.25 7.99798 8.641 7.05698 9.349 6.34898C10.057 5.64098 10.999 5.25098 12 5.25098C14.068 5.25098 15.75 6.93398 15.75 9.00098C15.75 10.587 14.745 12.007 13.25 12.536C12.951 12.642 12.75 12.926 12.75 13.243V14.25C12.75 14.664 12.414 15 12 15Z" fill="#A8AABD"/>
<path d="M12 18.75C12.6213 18.75 13.125 18.2463 13.125 17.625C13.125 17.0037 12.6213 16.5 12 16.5C11.3787 16.5 10.875 17.0037 10.875 17.625C10.875 18.2463 11.3787 18.75 12 18.75Z" fill="#A8AABD"/>
<path d="M12 24C5.383 24 0 18.617 0 12C0 5.383 5.383 0 12 0C18.617 0 24 5.383 24 12C24 18.617 18.617 24 12 24ZM12 1.5C6.21 1.5 1.5 6.21 1.5 12C1.5 17.79 6.21 22.5 12 22.5C17.79 22.5 22.5 17.79 22.5 12C22.5 6.21 17.79 1.5 12 1.5Z" fill="#A8AABD"/>
</svg>
