<svg width="24" height="24" viewBox="0 0 24 24" fill="none" xmlns="http://www.w3.org/2000/svg">
<g clip-path="url(#clip0)">
<path d="M10.75 24.011C9.785 24.011 9 23.226 9 22.261V21.011H6.75C5.509 21.011 4.5 20.002 4.5 18.761V18.011H2.25C1.009 18.011 0 17.002 0 15.761V2.26101C0 1.02001 1.009 0.0110073 2.25 0.0110073H12.75C13.991 0.0110073 15 1.02001 15 2.26101V3.01101H17.25C18.491 3.01101 19.5 4.02001 19.5 5.26101V6.01101H22.25C23.215 6.01101 24 6.79601 24 7.76101V22.261C24 23.226 23.215 24.011 22.25 24.011H10.75ZM10.75 7.51101C10.612 7.51101 10.5 7.62301 10.5 7.76101V22.261C10.5 22.399 10.612 22.511 10.75 22.511H22.25C22.388 22.511 22.5 22.399 22.5 22.261V7.76101C22.5 7.62301 22.388 7.51101 22.25 7.51101H10.75ZM6.75 4.51101C6.336 4.51101 6 4.84701 6 5.26101V18.761C6 19.175 6.336 19.511 6.75 19.511H9V7.76101C9 6.79601 9.785 6.01101 10.75 6.01101H18V5.26101C18 4.84701 17.664 4.51101 17.25 4.51101H6.75ZM2.25 1.51101C1.836 1.51101 1.5 1.84701 1.5 2.26101V15.761C1.5 16.175 1.836 16.511 2.25 16.511H4.5V5.26101C4.5 4.02001 5.509 3.01101 6.75 3.01101H13.5V2.26101C13.5 1.84701 13.164 1.51101 12.75 1.51101H2.25Z" fill="#A8AABD"/>
<path d="M17.25 12.011C16.836 12.011 16.5 11.675 16.5 11.261C16.5 10.847 16.836 10.511 17.25 10.511H20.25C20.664 10.511 21 10.847 21 11.261C21 11.675 20.664 12.011 20.25 12.011H17.25Z" fill="#A8AABD"/>
<path d="M13.5 12.011C13.3 12.011 13.111 11.933 12.97 11.791L12.22 11.041C12.078 10.9 12 10.711 12 10.511C12 10.311 12.078 10.122 12.22 9.98101C12.361 9.83901 12.55 9.76101 12.75 9.76101C12.95 9.76101 13.139 9.83901 13.28 9.98101L13.5 10.201L14.47 9.23101C14.612 9.08901 14.8 9.01101 15 9.01101C15.2 9.01101 15.389 9.08901 15.53 9.23101C15.672 9.37201 15.75 9.56101 15.75 9.76101C15.75 9.96101 15.672 10.15 15.53 10.291L14.03 11.791C13.889 11.933 13.7 12.011 13.5 12.011Z" fill="#A8AABD"/>
<path d="M17.25 16.511C16.836 16.511 16.5 16.175 16.5 15.761C16.5 15.347 16.836 15.011 17.25 15.011H20.25C20.664 15.011 21 15.347 21 15.761C21 16.175 20.664 16.511 20.25 16.511H17.25Z" fill="#A8AABD"/>
<path d="M13.5 16.511C13.3 16.511 13.111 16.433 12.97 16.291L12.22 15.541C11.928 15.249 11.928 14.773 12.22 14.48C12.362 14.338 12.55 14.26 12.75 14.26C12.95 14.26 13.139 14.338 13.28 14.48L13.5 14.7L14.47 13.73C14.612 13.588 14.8 13.51 15 13.51C15.2 13.51 15.389 13.588 15.53 13.73C15.822 14.022 15.822 14.498 15.53 14.791L14.03 16.291C13.889 16.433 13.7 16.511 13.5 16.511Z" fill="#A8AABD"/>
<path d="M17.25 21.011C16.836 21.011 16.5 20.675 16.5 20.261C16.5 19.847 16.836 19.511 17.25 19.511H20.25C20.664 19.511 21 19.847 21 20.261C21 20.675 20.664 21.011 20.25 21.011H17.25Z" fill="#A8AABD"/>
<path d="M13.5 21.011C13.3 21.011 13.111 20.933 12.97 20.791L12.22 20.041C11.928 19.749 11.928 19.273 12.22 18.98C12.362 18.838 12.55 18.76 12.75 18.76C12.95 18.76 13.139 18.838 13.28 18.98L13.5 19.2L14.47 18.23C14.612 18.088 14.8 18.01 15 18.01C15.2 18.01 15.389 18.088 15.53 18.23C15.822 18.522 15.822 18.998 15.53 19.291L14.03 20.791C13.889 20.933 13.7 21.011 13.5 21.011Z" fill="#A8AABD"/>
</g>
<defs>
<clipPath id="clip0">
<rect width="24" height="24" fill="white"/>
</clipPath>
</defs>
</svg>
