<svg width="24" height="24" viewBox="0 0 24 24" fill="none" xmlns="http://www.w3.org/2000/svg">
<g clip-path="url(#clip0)">
<path d="M11.9993 5.25C10.5523 5.25 9.37433 4.072 9.37433 2.625C9.37433 1.178 10.5523 0 11.9993 0C13.4473 0 14.6243 1.178 14.6243 2.625C14.6243 4.072 13.4473 5.25 11.9993 5.25ZM11.9993 1.5C11.3793 1.5 10.8743 2.005 10.8743 2.625C10.8743 3.245 11.3793 3.75 11.9993 3.75C12.6193 3.75 13.1243 3.245 13.1243 2.625C13.1243 2.005 12.6193 1.5 11.9993 1.5Z" fill="#A8AABD"/>
<path d="M21.3743 14.625C19.9263 14.625 18.7493 13.448 18.7493 12C18.7493 10.553 19.9263 9.375 21.3743 9.375C22.8223 9.375 23.9993 10.553 23.9993 12C23.9993 13.448 22.8223 14.625 21.3743 14.625ZM21.3743 10.875C20.7543 10.875 20.2493 11.38 20.2493 12C20.2493 12.62 20.7543 13.125 21.3743 13.125C21.9943 13.125 22.4993 12.62 22.4993 12C22.4993 11.38 21.9943 10.875 21.3743 10.875Z" fill="#A8AABD"/>
<path d="M11.9993 24C10.5523 24 9.37433 22.823 9.37433 21.375C9.37433 19.927 10.5523 18.75 11.9993 18.75C13.4473 18.75 14.6243 19.927 14.6243 21.375C14.6243 22.823 13.4473 24 11.9993 24ZM11.9993 20.25C11.3793 20.25 10.8743 20.755 10.8743 21.375C10.8743 21.995 11.3793 22.5 11.9993 22.5C12.6193 22.5 13.1243 21.995 13.1243 21.375C13.1243 20.755 12.6193 20.25 11.9993 20.25Z" fill="#A8AABD"/>
<path d="M2.62433 14.625C1.17733 14.625 -0.000671387 13.448 -0.000671387 12C-0.000671387 10.553 1.17733 9.375 2.62433 9.375C4.07133 9.375 5.24933 10.553 5.24933 12C5.24933 13.448 4.07133 14.625 2.62433 14.625ZM2.62433 10.875C2.00433 10.875 1.49933 11.38 1.49933 12C1.49933 12.62 2.00433 13.125 2.62433 13.125C3.24433 13.125 3.74933 12.62 3.74933 12C3.74933 11.38 3.24433 10.875 2.62433 10.875Z" fill="#A8AABD"/>
<path d="M19.8003 8.25C19.5333 8.25 19.2843 8.107 19.1513 7.876C18.4263 6.622 17.3793 5.575 16.1253 4.849C15.7673 4.642 15.6443 4.183 15.8513 3.825C15.9853 3.594 16.2343 3.45 16.5013 3.45C16.6323 3.45 16.7623 3.485 16.8763 3.551C18.3573 4.408 19.5933 5.644 20.4503 7.125C20.6573 7.483 20.5343 7.943 20.1763 8.15C20.0623 8.215 19.9323 8.25 19.8003 8.25Z" fill="#A8AABD"/>
<path d="M16.5003 20.55C16.2333 20.55 15.9843 20.407 15.8513 20.176C15.6443 19.818 15.7673 19.358 16.1243 19.151C17.3793 18.425 18.4253 17.379 19.1503 16.125C19.2843 15.894 19.5333 15.75 19.8003 15.75C19.9323 15.75 20.0613 15.785 20.1753 15.851C20.5333 16.058 20.6553 16.518 20.4493 16.875C19.5923 18.356 18.3563 19.592 16.8753 20.449C16.7623 20.515 16.6323 20.55 16.5003 20.55Z" fill="#A8AABD"/>
<path d="M7.50033 20.55C7.36833 20.55 7.23933 20.515 7.12533 20.449C5.64433 19.592 4.40833 18.356 3.55133 16.875C3.45133 16.702 3.42433 16.5 3.47633 16.306C3.52833 16.113 3.65233 15.951 3.82533 15.85C3.93933 15.784 4.06933 15.749 4.20033 15.749C4.46733 15.749 4.71633 15.893 4.85033 16.124C5.57533 17.379 6.62233 18.425 7.87633 19.15C8.04933 19.251 8.17333 19.412 8.22533 19.606C8.27733 19.8 8.25033 20.002 8.15033 20.175C8.01633 20.406 7.76733 20.55 7.50033 20.55Z" fill="#A8AABD"/>
<path d="M4.20033 8.25C4.06933 8.25 3.93933 8.215 3.82533 8.149C3.65233 8.049 3.52833 7.887 3.47633 7.693C3.42433 7.499 3.45133 7.298 3.55133 7.124C4.40833 5.643 5.64333 4.407 7.12533 3.55C7.23833 3.485 7.36833 3.45 7.50033 3.45C7.76733 3.45 8.01633 3.593 8.15033 3.824C8.25033 3.998 8.27633 4.2 8.22533 4.394C8.17433 4.588 8.04933 4.749 7.87533 4.849C6.62133 5.574 5.57533 6.621 4.84933 7.875C4.71633 8.107 4.46733 8.25 4.20033 8.25Z" fill="#A8AABD"/>
</g>
<defs>
<clipPath id="clip0">
<rect width="24" height="24" fill="white"/>
</clipPath>
</defs>
</svg>
