<svg width="109px" height="32px" viewBox="0 0 109 32" version="1.1" xmlns="http://www.w3.org/2000/svg">
    <title>UP42 logo</title>
    <path fill="#FFF" d="M0.693636364,0.5 L8.32363636,0.5 L8.32363636,20.1 C8.32363636,23.3 10.5036364,25.1 13.7736364,25.1 C17.0436364,25.1 19.2236364,23.4 19.2236364,20.1 L19.2236364,0.5 L26.7545455,0.5 L26.7545455,20.1 C26.7545455,27.1 21.6018182,32 13.7736364,32 C5.94545455,32 0.693636364,27.1 0.693636364,20.1 L0.693636364,0.5 Z"></path>
    <path fill="#FFF" d="M33.6909091,0.5 L46.6718182,0.5 C52.7163636,0.5 56.7790909,4.9 56.7790909,11.1 C56.7790909,17.3 52.7163636,21.9 46.6718182,21.9 L41.3209091,21.9 L41.3209091,31.5 L33.6909091,31.5 L33.6909091,0.5 Z M45.0863636,15.4 C47.7618182,15.4 49.05,13.6 49.05,11.2 C49.05,8.8 47.7618182,7 45.1854545,7 L41.3209091,7 L41.3209091,15.4 L45.0863636,15.4 Z"></path>
    <path fill="#FFF" d="M60.7427273,20.9 L75.0118182,1.3 L79.9663636,1.3 L79.9663636,20 L84.1281818,20 L84.1281818,23.6 L79.9663636,23.6 L79.9663636,31.8 L75.7054545,31.8 L75.7054545,23.7 L60.8418182,23.7 L60.7427273,20.9 Z M75.6063636,19.9 L75.6063636,8.9 C75.6063636,7.5 75.8045455,5.9 75.8045455,5.9 L75.7054545,5.9 C75.3090909,6.8 74.7145455,7.6 74.2190909,8.4 L65.4990909,20 L65.4990909,20 L75.6063636,20 L75.6063636,19.9 Z"></path>
    <path fill="#FFF" d="M88.6863636,29.5 C88.6863636,18.6 103.748182,17 103.748182,9.9 C103.748182,6.9 101.469091,4.8 98.1990909,4.8 C94.1363636,4.8 91.9563636,8.7 91.9563636,8.7 L88.7854545,6.6 C90.7672727,3 94.4336364,0.8 98.4963636,0.8 C104.144545,0.8 108.207273,4.3 108.207273,9.6 C108.207273,19.6 93.5418182,21.2 93.4427273,28.2 L108.702727,28.2 L108.702727,31.9 L88.8845455,31.9 C88.7854545,31 88.6863636,30.2 88.6863636,29.5 Z"></path>
</svg>