<svg width="70" height="32" viewBox="0 0 70 32" xmlns="http://www.w3.org/2000/svg">
  <path d="M37.7558 19.829H33.8578C33.3139 19.829 32.906 19.4189 32.906 18.8718V10.6667C32.906 10.1197 33.3139 9.70943 33.8578 9.70943H37.7558C40.5207 9.70943 42.4696 11.9886 42.4696 14.7692C42.4696 17.5498 40.5207 19.829 37.7558 19.829ZM38.1638 3.23643H27.9655C26.9684 3.23643 26.1073 4.10257 26.1073 5.10539V30.2679C26.1073 31.1795 26.7871 32 27.6937 32C28.6001 32 29.416 31.4074 30.0506 30.7237L33.0873 27.3049C33.7672 26.53 34.6737 26.302 35.7162 26.302H38.1638C44.5546 26.302 49.5856 21.1966 49.5856 14.7692C49.5856 8.34189 44.5546 3.23643 38.1638 3.23643ZM58.6507 11.7151C58.2427 11.7151 57.9255 11.3961 57.9255 10.9858V9.84618H53.0304C52.2598 9.84618 52.0333 9.16237 52.5318 8.47863L57.9708 0.683738C58.424 0.0455825 59.3306 0.136748 59.3306 1.0484V8.38747H60.5544C60.9622 8.38747 61.2796 8.70655 61.2796 9.11686C61.2796 9.5271 60.9622 9.84618 60.5544 9.84618H59.3306V10.9858C59.3306 11.3961 59.0133 11.7151 58.6507 11.7151ZM54.2088 8.38747H57.9255V3.09968L54.2088 8.38747ZM68.5768 11.7151H63.0472C62.3221 11.7151 62.0501 10.9858 62.5487 10.302L66.7186 4.78631C67.0358 4.37606 67.4438 3.73791 67.4438 3.19092C67.4438 2.14245 66.7186 1.45871 65.6308 1.45871C64.4523 1.45871 63.9084 2.2792 63.8178 2.82619C63.7271 3.19092 63.3645 3.46434 62.9566 3.37325C62.5939 3.32767 62.3221 2.91735 62.4126 2.55269C62.6393 1.27631 63.8631 0 65.6308 0C67.3984 0 68.8489 1.41313 68.8489 3.19092C68.8489 4.14815 68.3955 4.87747 67.8517 5.60686L64.3164 10.2564H68.5768C68.9848 10.2564 69.3021 10.5755 69.3021 10.9858C69.3021 11.3961 68.9848 11.7151 68.5768 11.7151ZM11.422 27.6696C18.0394 27.6696 22.8438 22.792 22.8438 16.1368V5.10539C22.8438 4.05699 22.028 3.23643 20.9855 3.23643H17.3142C16.2717 3.23643 15.4559 4.05699 15.4559 5.10539V15.6353C15.4559 18.3704 14.1414 20.3761 11.422 20.3761C8.7024 20.3761 7.38802 18.3704 7.38802 15.6353V5.10539C7.38802 4.05699 6.57213 3.23643 5.52968 3.23643H1.85834C0.815824 3.23643 0 4.05699 0 5.10539V16.1368C0 22.792 4.80444 27.6696 11.422 27.6696Z" fill="white"/>
</svg>
